<?xml version="1.0" encoding="utf-8"?>
<!-- Generator: Adobe Illustrator 25.0.0, SVG Export Plug-In . SVG Version: 6.00 Build 0)  -->
<svg version="1.1" id="Layer_1" xmlns="http://www.w3.org/2000/svg" xmlns:xlink="http://www.w3.org/1999/xlink" x="0px" y="0px"
	 viewBox="0 0 960 960" style="enable-background:new 0 0 960 960;" xml:space="preserve">
<style type="text/css">
	.st0{enable-background:new    ;}
	.st1{clip-path:url(#SVGID_2_);}
	.st2{clip-path:url(#SVGID_4_);}
	.st3{display:none;}
	.st4{display:inline;}
	.st5{clip-path:url(#SVGID_6_);}
	.st6{clip-path:url(#SVGID_8_);}
	.st7{clip-path:url(#SVGID_10_);}
	.st8{clip-path:url(#SVGID_12_);}
</style>
<g class="st0">
	<g>
		<g>
			<g>
				<defs>
					<rect id="SVGID_1_" x="-91" y="-51" width="1200.8" height="1200.8"/>
				</defs>
				<clipPath id="SVGID_2_">
					<use xlink:href="#SVGID_1_"  style="overflow:visible;"/>
				</clipPath>
				<g class="st1">
					<g>
						<g>
							<g>
								<defs>
									<rect id="SVGID_3_" x="-91" y="-51" width="1200.8" height="1200.8"/>
								</defs>
								<clipPath id="SVGID_4_">
									<use xlink:href="#SVGID_3_"  style="overflow:visible;"/>
								</clipPath>
								<g class="st2">
									
										<image style="overflow:visible;enable-background:new    ;" width="838" height="838" xlink:href="../قنديل/5FFF3786.png"  transform="matrix(1.5315 0 0 1.5315 -127.0527 -77.3333)">
									</image>
								</g>
							</g>
						</g>
					</g>
				</g>
			</g>
		</g>
	</g>
	<g class="st3">
		<g class="st4">
			<g>
				<defs>
					<path id="SVGID_5_" d="M521.4,770.1c0-0.6,0-1.3,0.1-2.3s0.2-2,0.2-3.1c0.1-1.1,0.2-2.3,0.3-3.4c0.1-1.1,0.3-2.2,0.5-3.1
						c0.2-1.2,0.8-1.8,1.9-1.8h4.1c1.1,0,1.6,0.7,1.5,1.9c-0.2,1.5-0.4,3.1-0.5,4.8s-0.2,3.1-0.2,4.2c0,3.2,0.2,6.3,0.6,9.1
						s1.3,5.4,2.8,7.6c1.5,2.2,3.6,3.9,6.5,5.2s6.8,1.9,11.8,1.9c1.9,0,3.8,0,5.8-0.2c2-0.1,3.7-0.3,5.2-0.6c0-1.8,0-3.4,0-4.7
						s0-2.6,0-3.7v-3.3v-3.7v-10.6c0-6.8,2-11.8,5.8-14.9c3.9-3.1,9.3-4.6,16.2-4.6c2.1,0,4.3,0.1,6.5,0.3s4.1,0.5,6,1
						c0.5,0.1,0.9,0.3,1.2,0.5s0.4,0.6,0.4,1.2v23.3c0,1.5,0.3,2.5,1,3c0.7,0.4,2,0.6,4,0.6h4.5v8.3H601c-4.1,0-7-0.7-8.6-2.2
						c-1.7-1.5-2.5-4.1-2.5-7.9v-20c-1.3-0.2-2.4-0.3-3.3-0.4c-0.9-0.1-2-0.1-3.1-0.1c-2.1,0-3.9,0.2-5.6,0.6c-1.7,0.4-3,1-4.1,2
						c-1.1,0.9-2,2.2-2.6,3.8s-0.9,3.6-0.9,6.1v17.5v3.1c0,1.2,0,2.4-0.1,3.7v3.6c-0.1,1.2-0.1,2.2-0.2,3.1c0,1.1-0.7,1.8-2,2
						c-2.4,0.5-5.1,0.8-8,1s-6,0.3-9.1,0.3c-5.8,0-10.5-0.7-14.2-2.1c-3.7-1.4-6.8-3.3-9-5.8c-2.3-2.5-3.8-5.6-4.7-9.1
						C521.8,778.5,521.4,774.5,521.4,770.1z M534.1,808.8c0-0.7,0.2-1.2,0.6-1.5c0.4-0.3,1-0.5,1.6-0.5h3.6c0.6,0,1.1,0.2,1.5,0.5
						c0.5,0.3,0.7,0.8,0.7,1.5v4.8c0,0.5-0.2,1-0.7,1.3c-0.5,0.4-1,0.6-1.5,0.6h-3.6c-0.7,0-1.2-0.2-1.6-0.6
						c-0.4-0.4-0.6-0.8-0.6-1.3V808.8z M549.8,808.8c0-0.7,0.2-1.2,0.7-1.5s0.9-0.5,1.5-0.5h3.8c0.5,0,1,0.2,1.5,0.5
						s0.7,0.8,0.7,1.5v4.8c0,0.5-0.2,1-0.7,1.3c-0.5,0.4-0.9,0.6-1.5,0.6H552c-0.5,0-1-0.2-1.5-0.6c-0.5-0.4-0.7-0.8-0.7-1.3V808.8z
						 M603.6,775.9c0-0.4,0.3-0.7,1-0.9s1.4-0.3,2.3-0.3h6.8c1.9,0,3.1-0.2,3.6-0.5s0.8-1.3,0.8-3v-6.4v-6c0-2,0-4.1,0-6.2
						s-0.1-4.5-0.2-7c0-0.5,0.2-1,0.4-1.3c0.3-0.3,0.7-0.5,1.2-0.5h4.6c0.6,0,1,0.2,1.3,0.5s0.5,0.8,0.5,1.3c0.1,2.2,0.1,4,0.2,5.5
						s0,2.9,0,4.1v4.1v5c0,3.1,0,6,0,8.6s-0.2,4.7-0.3,6.2c-0.1,0.7-0.3,1.2-0.6,1.7s-0.8,0.8-1.6,1.2c-0.5,0.2-1.2,0.3-2.1,0.4
						c-0.9,0.1-1.9,0.2-3.1,0.3c-1.2,0.1-2.3,0.2-3.6,0.2c-1.2,0-2.4,0-3.5,0H607c-0.9,0-1.7-0.1-2.3-0.3c-0.7-0.2-1-0.6-1-1
						L603.6,775.9L603.6,775.9z M617.3,724.1c0-0.7,0.2-1.2,0.7-1.5c0.5-0.4,1-0.6,1.5-0.6h4.3c0.6,0,1.1,0.2,1.5,0.6
						c0.4,0.4,0.6,0.9,0.6,1.5v5.2c0,0.6-0.2,1.1-0.6,1.5s-1,0.6-1.6,0.6h-4.1c-0.7,0-1.2-0.2-1.6-0.6c-0.4-0.4-0.6-0.9-0.6-1.5
						L617.3,724.1L617.3,724.1z M638.5,776.4c0-0.5,0.2-0.9,0.6-1.3c0.4-0.3,0.8-0.5,1.3-0.5h26.4l-0.1-11.9
						c-0.1-5.7-1.6-9.9-4.3-12.7s-7.2-4.1-13.3-4.1c-0.7,0-1.7,0-3,0s-2.4,0.1-3.4,0.2c-1.3,0.1-1.9-0.3-1.9-1.3v-4
						c0-0.5,0.2-0.9,0.4-1.3c0.3-0.3,0.8-0.5,1.5-0.6c1.7-0.3,3.3-0.4,4.8-0.5s2.6-0.1,3.3-0.1c4.4,0,8.1,0.6,11.1,1.7
						c3,1.2,5.4,2.8,7.3,4.9s3.2,4.6,4.1,7.6s1.3,6.1,1.5,9.6c0,0.3,0,0.9,0,1.9s0.1,2.2,0.1,3.4s0,2.4,0,3.5v2.2v1.7
						c0,0.7,0,1.3-0.1,2.1v2.1c-0.1,0.7-0.1,1.3-0.2,1.7c0,1.3-0.7,1.9-2.1,1.9h-32.1c-0.5,0-1-0.2-1.3-0.4
						c-0.4-0.3-0.6-0.7-0.6-1.2V776.4L638.5,776.4z M689.7,712.2c0-0.5,0.2-1,0.5-1.3c0.3-0.4,0.8-0.6,1.3-0.6h4.7
						c0.5,0,0.9,0.2,1.3,0.6c0.3,0.4,0.5,0.8,0.5,1.3V769c0,1.3,0.2,2.3,0.4,3c0.3,0.7,0.7,1.3,1.3,1.7c0.5,0.4,1.2,0.7,2,0.8
						s1.7,0.2,2.8,0.2h2.4v8.3h-4.5c-2.1,0-3.9-0.2-5.4-0.5s-2.9-1-4-1.9s-1.9-2.2-2.5-3.7s-0.8-3.5-0.8-6V712.2L689.7,712.2z
						 M703,775.9c0-0.4,0.3-0.7,1-0.9s1.4-0.3,2.3-0.3h6.8c1.9,0,3.1-0.2,3.6-0.5s0.8-1.3,0.8-3v-6.4v-6c0-2,0-4.1,0-6.2
						s-0.1-4.5-0.2-7c0-0.5,0.2-1,0.4-1.3c0.3-0.3,0.7-0.5,1.2-0.5h4.6c0.6,0,1,0.2,1.3,0.5s0.5,0.8,0.5,1.3c0.1,2.2,0.1,4,0.2,5.5
						c0,1.5,0,2.9,0,4.1v4.1v5c0,3.1,0,6,0,8.6s-0.2,4.7-0.3,6.2c-0.1,0.7-0.3,1.2-0.6,1.7s-0.8,0.8-1.6,1.2
						c-0.5,0.2-1.2,0.3-2.1,0.4c-0.9,0.1-1.9,0.2-3.1,0.3c-1.2,0.1-2.3,0.2-3.6,0.2c-1.2,0-2.4,0-3.5,0h-4.3c-0.9,0-1.7-0.1-2.3-0.3
						c-0.7-0.2-1-0.6-1-1L703,775.9L703,775.9z M716.8,724.1c0-0.7,0.2-1.2,0.7-1.5c0.5-0.4,1-0.6,1.5-0.6h4.3
						c0.6,0,1.1,0.2,1.5,0.6c0.4,0.4,0.6,0.9,0.6,1.5v5.2c0,0.6-0.2,1.1-0.6,1.5c-0.4,0.4-1,0.6-1.6,0.6H719c-0.7,0-1.2-0.2-1.6-0.6
						c-0.4-0.4-0.6-0.9-0.6-1.5L716.8,724.1L716.8,724.1z"/>
				</defs>
				<clipPath id="SVGID_6_">
					<use xlink:href="#SVGID_5_"  style="overflow:visible;"/>
				</clipPath>
				<g class="st5">
					<g>
						<g>
							<defs>
								<rect id="SVGID_7_" y="0" width="960" height="960"/>
							</defs>
							<clipPath id="SVGID_8_">
								<use xlink:href="#SVGID_7_"  style="overflow:visible;"/>
							</clipPath>
							<g class="st6">
							</g>
						</g>
					</g>
				</g>
			</g>
		</g>
	</g>
	<g class="st3">
		<g class="st4">
			<g>
				<defs>
					<path id="SVGID_9_" d="M252,790c0,0.6-0.2,1.2-0.7,1.6c-0.4,0.4-1,0.7-1.6,0.7H245c-1.2,0-2.1-0.4-2.5-1.2l-23.9-45.4
						c-0.1-0.2-0.2-0.2-0.2-0.2s-0.1,0.1-0.1,0.2v45.2c0,0.4-0.1,0.8-0.4,1c-0.3,0.3-0.6,0.4-1,0.4h-4c-0.4,0-0.7,0-1-0.2
						c-0.3-0.1-0.4-0.3-0.4-0.8v-54.4c0-0.6,0.2-1.2,0.7-1.5c0.4-0.4,1-0.6,1.6-0.6h4.2c1.1,0,1.8,0.1,2.2,0.3s0.7,0.6,1,1.2
						l23.8,45.2l0.2,0.2c0,0,0.1-0.1,0.1-0.2v-45.3c0-0.4,0.1-0.8,0.4-1c0.3-0.3,0.6-0.4,1-0.4h4.1c0.4,0,0.7,0.2,1,0.4
						c0.3,0.3,0.4,0.6,0.4,1L252,790L252,790z M304.7,790.5c0,0.1,0.1,0.3,0.1,0.5c0,0.8-0.4,1.2-1.3,1.2h-4.6
						c-0.3,0-0.7-0.1-0.8-0.3c-0.2-0.2-0.3-0.5-0.5-0.8l-5-17.8h-20l-5,17.8c-0.1,0.3-0.3,0.6-0.5,0.8c-0.3,0.2-0.5,0.3-0.8,0.3
						h-4.6c-0.9,0-1.3-0.4-1.3-1.2c0-0.3,0-0.4,0.1-0.5l14.3-50.4c0.3-1.2,0.8-2.2,1.3-2.9c0.6-0.7,1.3-1.3,2-1.8
						c0.7-0.4,1.5-0.7,2.3-0.9s1.6-0.3,2.3-0.3c0.7,0,1.5,0.1,2.2,0.2c0.8,0.2,1.5,0.5,2.2,0.9s1.4,1,2,1.8s1,1.7,1.3,2.9
						L304.7,790.5L304.7,790.5z M284,741.7c-0.3-0.9-0.7-1.4-1.5-1.4s-1.3,0.5-1.5,1.4l-7,25.5h17.1L284,741.7z M352.2,768.7
						c0,4.1-0.5,7.7-1.7,10.8c-1.1,3-2.7,5.5-4.7,7.5s-4.5,3.4-7.4,4.4s-6.1,1.4-9.7,1.4c-1.5,0-3,0-4.4-0.1c-1.4,0-2.8-0.1-4-0.2
						c-1.3-0.1-2.4-0.2-3.4-0.2c-1-0.1-1.8-0.2-2.3-0.3c-1.1-0.2-1.6-0.8-1.6-1.9V737c0-1.2,0.5-1.8,1.6-1.9
						c0.6-0.1,1.3-0.2,2.3-0.3s2.1-0.2,3.4-0.2c1.3-0.1,2.6-0.2,4-0.2s2.9-0.1,4.4-0.1c3.6,0,6.8,0.5,9.7,1.4
						c2.9,0.9,5.3,2.4,7.4,4.4c2,2,3.6,4.5,4.7,7.5s1.7,6.6,1.7,10.8V768.7z M345.2,758.3c0-3.5-0.4-6.4-1.3-8.8
						c-0.8-2.3-2-4.1-3.5-5.5s-3.2-2.3-5.2-2.9c-2-0.6-4.1-0.8-6.5-0.8c-1.8,0-3.4,0-4.7,0s-2.6,0.1-3.9,0.2v46.1
						c1.2,0.1,2.5,0.2,3.9,0.2h4.7c2.3,0,4.5-0.3,6.5-0.8c2-0.6,3.7-1.5,5.2-3c1.5-1.4,2.6-3.2,3.5-5.5c0.8-2.3,1.3-5.2,1.3-8.7
						C345.2,768.7,345.2,758.3,345.2,758.3z M403.2,790c0,0.6-0.2,1.2-0.7,1.6c-0.4,0.4-1,0.7-1.6,0.7h-4.8c-1.2,0-2.1-0.4-2.5-1.2
						l-23.9-45.4c-0.1-0.2-0.2-0.2-0.2-0.2s-0.1,0.1-0.1,0.2v45.2c0,0.4-0.1,0.8-0.4,1c-0.3,0.3-0.6,0.4-1,0.4h-4
						c-0.4,0-0.7,0-1-0.2c-0.3-0.1-0.4-0.3-0.4-0.8v-54.4c0-0.6,0.2-1.2,0.7-1.5c0.4-0.4,1-0.6,1.6-0.6h4.3c1.1,0,1.8,0.1,2.2,0.3
						c0.3,0.2,0.7,0.6,1,1.2l23.8,45.2l0.2,0.2c0,0,0.1-0.1,0.1-0.2v-45.3c0-0.4,0.1-0.8,0.4-1c0.3-0.3,0.6-0.4,1-0.4h4.1
						c0.4,0,0.7,0.2,1,0.4c0.3,0.3,0.4,0.6,0.4,1V790H403.2z M447.6,791.3c0,0.3-0.1,0.5-0.2,0.7s-0.3,0.3-0.6,0.4
						c-0.7,0.1-1.7,0.2-3,0.2c-1.2,0-2.6,0.1-4,0.1s-2.8,0.1-4.3,0.1h-3.9c-5.5,0-9.6-1.1-12.3-3.3c-2.8-2.2-4.1-5.9-4.1-11.1v-29.8
						c0-5.1,1.4-8.8,4.1-11.1c2.8-2.2,6.9-3.3,12.3-3.3c1.2,0,2.4,0,3.8,0l4.3,0.2c1.4,0,2.7,0,4,0.2l3.1,0.2c0.3,0,0.5,0.2,0.6,0.4
						s0.2,0.4,0.2,0.7v3.9c0,0.6-0.3,0.9-0.8,0.9h-14.9c-2.1,0-3.7,0.2-5,0.4c-1.2,0.3-2.2,0.7-2.9,1.4c-0.7,0.7-1.1,1.5-1.3,2.5
						c-0.2,1-0.3,2.3-0.3,3.7v10.8h23.8c0.4,0,0.8,0.2,1.1,0.5s0.5,0.7,0.5,1.1v3c0,0.4-0.2,0.8-0.5,1.1s-0.7,0.5-1.1,0.5h-23.8v13
						c0,1.5,0.1,2.8,0.3,3.8c0.2,1,0.7,1.8,1.3,2.5c0.7,0.7,1.6,1.1,2.9,1.4c1.2,0.3,2.9,0.4,5,0.4h14.9c0.6,0,0.8,0.3,0.8,0.9
						V791.3z M490.3,791.3c0,0.3-0.1,0.5-0.2,0.7s-0.3,0.3-0.6,0.4c-0.7,0.1-1.7,0.2-3,0.2c-1.2,0-2.6,0.1-4,0.1s-2.8,0.1-4.3,0.1
						h-3.9c-5.5,0-9.6-1.1-12.3-3.3c-2.8-2.2-4.1-5.9-4.1-11.1v-29.8c0-5.1,1.4-8.8,4.1-11.1c2.8-2.2,6.9-3.3,12.3-3.3
						c1.2,0,2.4,0,3.8,0l4.3,0.2c1.4,0,2.7,0,4,0.2l3.1,0.2c0.3,0,0.5,0.2,0.6,0.4s0.2,0.4,0.2,0.7v3.9c0,0.6-0.3,0.9-0.8,0.9h-14.9
						c-2.1,0-3.7,0.2-5,0.4c-1.2,0.3-2.2,0.7-2.9,1.4c-0.7,0.7-1.1,1.5-1.3,2.5c-0.2,1-0.3,2.3-0.3,3.7v10.8h23.8
						c0.4,0,0.8,0.2,1.1,0.5c0.3,0.3,0.5,0.7,0.5,1.1v3c0,0.4-0.2,0.8-0.5,1.1s-0.7,0.5-1.1,0.5H465v13c0,1.5,0.1,2.8,0.3,3.8
						c0.2,1,0.7,1.8,1.3,2.5c0.7,0.7,1.6,1.1,2.9,1.4c1.2,0.3,2.9,0.4,5,0.4h14.9c0.6,0,0.8,0.3,0.8,0.9
						C490.3,787.3,490.3,791.3,490.3,791.3z"/>
				</defs>
				<clipPath id="SVGID_10_">
					<use xlink:href="#SVGID_9_"  style="overflow:visible;"/>
				</clipPath>
				<g class="st7">
					<g>
						<g>
							<defs>
								<rect id="SVGID_11_" y="0" width="960" height="960"/>
							</defs>
							<clipPath id="SVGID_12_">
								<use xlink:href="#SVGID_11_"  style="overflow:visible;"/>
							</clipPath>
							<g class="st8">
							</g>
						</g>
					</g>
				</g>
			</g>
		</g>
	</g>
</g>
</svg>
